<svg xmlns="http://www.w3.org/2000/svg" viewBox="0 0 1080 1080"><g fill="none" fill-rule="evenodd"><path fill="#FF5300" d="M161 410l-68.771 25.79c-6.202 2.325-13.612 9.029-16.192 15.126C76.037 450.916 61 475 61 540s15.037 89.084 15.037 89.084c2.74 6.029 9.998 12.804 16.192 15.127L161 670l269 255 13.379 98.11c.895 6.567 6.52 14.097 12.676 16.566 0 0 28.945 15.324 83.945 15.324 55 0 83.961-15.33 83.961-15.33 6.097-2.58 11.765-9.994 12.66-16.56L650 925l269-255 68.771-25.79c6.202-2.325 13.612-9.029 16.192-15.126 0 0 15.037-24.084 15.037-89.084s-15.037-89.084-15.037-89.084c-2.74-6.029-9.998-12.804-16.192-15.127L919 410H161z"/><path fill="#FF5300" d="M540 940c250 0 400-150 400-400S790 140 540 140 140 290 140 540s150 400 400 400z"/><path fill="#FFF" d="M540 850c171.692 0 310-138.308 310-310S711.692 230 540 230 230 368.308 230 540s138.308 310 310 310z"/><path fill="#131313" d="M540 390c-82 0-150 68-150 150s68 150 150 150 150-68 150-150c0-10-.7-13.085-.7-13.085-.718-6.58-6.633-12.544-13.188-13.553 0 0-46.112-3.362-76.112-33.362-30-30-33.362-76.112-33.362-76.112-.905-6.565-6.973-12.528-13.569-13.188 0 0-3.069-.7-13.069-.7z"/></g></svg>